<svg id="svg" version="1.1" xmlns="http://www.w3.org/2000/svg" xmlns:xlink="http://www.w3.org/1999/xlink" width="400" height="400" viewBox="0, 0, 400,400"><g id="svgg"><path id="path0" d="M126.000 62.833 L 126.000 86.667 149.833 86.667 L 173.667 86.667 173.667 62.833 L 173.667 39.000 149.833 39.000 L 126.000 39.000 126.000 62.833 M0.000 70.167 L 0.000 94.000 23.833 94.000 L 47.667 94.000 47.667 70.167 L 47.667 46.333 23.833 46.333 L 0.000 46.333 0.000 70.167 M55.333 172.833 L 55.333 210.667 93.167 210.667 L 131.000 210.667 131.000 172.833 L 131.000 135.000 93.167 135.000 L 55.333 135.000 55.333 172.833 M12.333 154.500 L 12.333 170.667 28.500 170.667 L 44.667 170.667 44.667 154.500 L 44.667 138.333 28.500 138.333 L 12.333 138.333 12.333 154.500 M133.000 277.500 L 133.000 294.667 150.167 294.667 L 167.333 294.667 167.333 277.500 L 167.333 260.333 150.167 260.333 L 133.000 260.333 133.000 277.500 " stroke="none" fill="#e4dce4" fill-rule="evenodd"></path><path id="path1" d="M65.333 39.167 L 65.333 54.667 80.833 54.667 L 96.333 54.667 96.333 39.167 L 96.333 23.667 80.833 23.667 L 65.333 23.667 65.333 39.167 M181.685 71.417 L 181.736 94.833 161.201 94.919 L 140.667 95.005 140.667 157.836 L 140.667 220.667 156.667 220.667 L 172.667 220.667 172.667 262.333 L 172.667 304.000 156.667 304.000 L 140.667 304.000 140.667 339.000 L 140.667 374.000 186.333 374.000 L 232.000 374.000 232.000 312.667 L 232.000 251.333 270.667 251.333 L 309.333 251.333 309.333 312.667 L 309.333 374.000 354.667 374.000 L 400.000 374.000 400.000 211.000 L 400.000 48.000 354.333 48.000 L 308.667 48.000 308.667 107.667 L 308.667 167.333 270.667 167.333 L 232.667 167.333 232.667 107.667 L 232.667 48.000 207.150 48.000 L 181.634 48.000 181.685 71.417 M58.667 98.000 L 58.667 124.000 84.667 124.000 L 110.667 124.000 110.667 98.000 L 110.667 72.000 84.667 72.000 L 58.667 72.000 58.667 98.000 M210.000 148.000 L 210.000 170.000 188.000 170.000 L 166.000 170.000 166.000 148.000 L 166.000 126.000 188.000 126.000 L 210.000 126.000 210.000 148.000 M224.667 226.000 L 224.667 250.000 203.667 250.000 L 182.667 250.000 182.667 226.000 L 182.667 202.000 203.667 202.000 L 224.667 202.000 224.667 226.000 M98.667 239.670 L 98.667 257.339 116.250 257.253 L 133.833 257.167 133.920 239.583 L 134.006 222.000 116.336 222.000 L 98.667 222.000 98.667 239.670 " stroke="none" fill="#fc6c2c" fill-rule="evenodd"></path><path id="path2" d="" stroke="none" fill="#f0e0b8" fill-rule="evenodd"></path><path id="path3" d="" stroke="none" fill="#f0a858" fill-rule="evenodd"></path><path id="path4" d="" stroke="none" fill="#f06c5c" fill-rule="evenodd"></path></g></svg>